<?xml version="1.0" encoding="UTF-8"?>
<svg id="Layer_1" data-name="Layer 1" xmlns="http://www.w3.org/2000/svg" width="953.48" height="953.05" viewBox="0 0 953.48 953.05">
  <defs>
    <style>
      .cls-1 {
        fill: #fff;
        stroke-width: 0px;
      }
    </style>
  </defs>
  <path class="cls-1" d="M953.4,476.44c0,134.35-.07,268.71.08,403.06.02,17.8-3.97,34.01-15.53,47.82-13.81,16.51-31.59,25.62-53.11,25.63-272.04.14-544.07.11-816.11.07-36.97,0-67.55-30.04-68.49-66.92-.14-5.32-.13-10.65-.13-15.98C.1,604.57.15,339.03,0,73.49c-.01-18.92,4.26-35.95,17.12-50.2C30.27,8.7,46.87,1.26,66.37.04c1.16-.07,2.33-.03,3.5-.03,271.2,0,542.41,0,813.61,0,33.1,0,61.2,21.7,68.12,53.04,1.49,6.74,1.72,13.87,1.73,20.82.1,134.19.07,268.37.07,402.56ZM507.28,420.18c-.24-3.07-.52-4.95-.52-6.83-.03-16.31-.02-32.63-.02-48.94,0-7.55-.01-7.57-7.35-7.57-40.29,0-80.58,0-120.86,0-7.43,0-7.45.02-7.45,7.46,0,146.83,0,293.67,0,440.5,0,7.28.02,7.29,7.56,7.29,41.62,0,83.24,0,124.86,0q9.04,0,9.04-8.82c0-73.08,0-146.17,0-219.25,0-18.86,1.23-37.62,6.3-55.89,6.06-21.87,17.09-40.01,38.53-50.13,15.54-7.33,32.03-8.49,48.81-7.41,28.32,1.82,47.95,17.12,56.76,44.1,5.79,17.74,7.71,36.09,7.74,54.63.11,78.41.07,156.82.09,235.23q0,7.51,7.33,7.52c42.62,0,85.24,0,127.86,0q7.31,0,7.32-7.43c0-75.91.11-151.83-.07-227.74-.05-19.62-.54-39.27-1.66-58.86-1.66-29.2-6.33-57.92-17.35-85.22-15.55-38.52-42.65-64.83-82.64-77.38-29.53-9.27-59.78-11.7-90.27-7.96-47.54,5.83-85.57,27.69-110.92,69.41-.54.89-1.44,1.55-3.09,3.27ZM282.74,584.72c0-73.59,0-147.17,0-220.76,0-7.08-.03-7.12-6.78-7.13-42.79-.01-85.57.07-128.36-.1-5.04-.02-6.51,1.51-6.51,6.55.12,147.51.12,295.01,0,442.52,0,5.16,1.61,6.42,6.55,6.4,42.29-.18,84.57-.1,126.86-.1q8.24,0,8.24-8.11c0-73.09,0-146.17,0-219.26ZM212.48,130.83c-45.56-.16-82.32,36.39-82.39,82.02-.07,44.14,34.06,82.45,81.96,82.44,47.55,0,82.72-37.14,82.57-82.51-.16-47.09-38.31-81.87-82.14-81.95Z"/>
</svg>