<?xml version="1.0" encoding="UTF-8"?>
<svg id="Layer_1" data-name="Layer 1" xmlns="http://www.w3.org/2000/svg" viewBox="0 0 779.9 272.75">
  <defs>
    <style>
      .cls-1 {
        fill: #737373;
      }

      .cls-1, .cls-2 {
        stroke-width: 0px;
      }

      .cls-2 {
        fill: #1a2d58;
      }
    </style>
  </defs>
  <path class="cls-1" d="M345.94.22c20.16,0,39.82-.22,59.46.32,2.15.06,5.2,4.2,6.11,7.01,18.36,56.5,36.46,113.09,54.64,169.64,1.37,4.27,2.96,8.46,5.34,15.25,4.05-11.55,7.44-20.83,10.58-30.2,17.15-51.15,34.35-102.28,51.22-153.52,2.13-6.48,5.04-8.97,12.07-8.71,16.01.58,32.06.18,48.63.18,20.7,64.06,41.31,127.85,61.92,191.64.64-.02,1.29-.05,1.93-.07,20.97-63.66,41.94-127.33,62.99-191.24h59.07c-7.97,24.66-15.78,48.97-23.7,73.25-20.69,63.37-41.51,126.69-62.03,190.12-2.06,6.37-4.76,9.05-11.91,8.83-19.05-.58-38.13-.2-57.95-.2-19.97-61.3-39.9-122.48-59.83-183.65-.62.04-1.24.08-1.86.13-8.06,23.83-16.16,47.65-24.16,71.5-11.71,34.94-23.45,69.88-34.91,104.91-1.79,5.47-4.33,7.42-10.23,7.28-17.56-.45-35.13-.28-52.7-.08-4.55.05-6.85-1.11-8.4-5.88-28.32-87.21-56.86-174.35-85.34-261.52-.45-1.37-.56-2.85-.96-5Z"/>
  <path class="cls-2" d="M433.96,272.53c-20.16,0-39.82.22-59.46-.32-2.15-.06-5.2-4.2-6.11-7.01-18.36-56.5-36.46-113.09-54.64-169.64-1.37-4.27-2.96-8.46-5.34-15.25-4.05,11.55-7.44,20.83-10.58,30.2-17.15,51.15-34.35,102.28-51.22,153.52-2.13,6.48-5.04,8.97-12.07,8.71-16.01-.58-32.06-.18-48.63-.18-20.7-64.06-41.31-127.85-61.92-191.64-.64.02-1.29.05-1.93.07-20.97,63.66-41.94,127.33-62.99,191.24H0c7.97-24.66,15.78-48.97,23.7-73.25,20.69-63.37,41.51-126.69,62.03-190.12C87.79,2.47,90.48-.21,97.64.01c19.05.58,38.13.2,57.95.2,19.97,61.3,39.9,122.48,59.83,183.65.62-.04,1.24-.08,1.86-.13,8.06-23.83,16.16-47.65,24.16-71.5,11.71-34.94,23.45-69.88,34.91-104.91,1.79-5.47,4.33-7.42,10.23-7.28,17.56.45,35.13.28,52.7.08,4.55-.05,6.85,1.11,8.4,5.88,28.32,87.21,56.86,174.35,85.34,261.52.45,1.37.56,2.85.96,5Z"/>
</svg>